<?xml version="1.0" encoding="UTF-8"?>
<svg id="Camada_1" data-name="Camada 1" xmlns="http://www.w3.org/2000/svg" viewBox="0 0 1698 756">
  <defs>
    <style>
      .cls-1 {
        fill: #32658a;
      }

      .cls-2 {
        fill: #e8cc85;
      }
    </style>
  </defs>
  <g>
    <g>
      <path class="cls-1" d="M552.72,527.62v-66.71h-24.73v-5.01h55.58v5.01h-24.73v66.71h-6.13Z"/>
      <path class="cls-1" d="M608.08,528.74c-9.51,0-16.43-2.25-20.77-6.74-4.34-4.49-6.52-11.53-6.52-21.11,0-8.46,1.91-15.11,5.74-19.94,3.82-4.83,10.04-7.24,18.66-7.24,5.12,0,9.28.95,12.47,2.84,3.19,1.89,5.55,4.44,7.07,7.63,1.52,3.2,2.28,6.76,2.28,10.69v9.58h-40.1c.3,6.83,2.08,11.75,5.35,14.76,3.27,3.01,8.95,4.51,17.04,4.51,4.9,0,9.65-.93,14.26-2.78v5.01c-4.53,1.86-9.69,2.79-15.48,2.79ZM586.91,499.67h34.53v-5.01c0-4.9-1.26-8.76-3.79-11.58-2.53-2.82-6.65-4.23-12.36-4.23-6.98,0-11.79,1.8-14.42,5.4-2.64,3.6-3.95,8.74-3.95,15.43Z"/>
      <path class="cls-1" d="M665.43,528.74c-9.13,0-15.78-2.41-19.94-7.24-4.16-4.83-6.24-11.58-6.24-20.27,0-9.28,2.43-16.19,7.29-20.71,4.86-4.53,11.45-6.79,19.77-6.79,3.41,0,6.16.24,8.24.72,2.08.48,4.12,1.21,6.13,2.17v5.01c-3.94-1.86-8.39-2.79-13.37-2.79-6.98,0-12.4,1.78-16.26,5.35-3.86,3.56-5.79,9.25-5.79,17.04s1.65,13.31,4.96,16.99c3.3,3.67,8.85,5.51,16.65,5.51,2.38,0,4.77-.26,7.18-.78,2.41-.52,4.66-1.22,6.74-2.12v5.12c-2.08.89-4.4,1.58-6.96,2.06-2.56.48-5.37.72-8.41.72Z"/>
      <path class="cls-1" d="M691.61,527.62v-52.79h5.35l.56,6.46c2.67-2.23,5.72-4.05,9.13-5.46,3.41-1.41,7.5-2.12,12.25-2.12,6.61,0,11.4,1.52,14.37,4.57,2.97,3.04,4.46,7.87,4.46,14.48v34.86h-6.12v-34.75c0-5.2-1.06-8.83-3.17-10.91-2.12-2.08-6.14-3.12-12.08-3.12-3.71,0-7.15.71-10.3,2.12-3.16,1.41-5.92,3.27-8.3,5.57v41.1h-6.13Z"/>
      <path class="cls-1" d="M775.7,528.74c-8.91,0-15.33-2.34-19.27-7.02-3.94-4.68-5.9-11.51-5.9-20.49s2-15.72,6.01-20.44c4.01-4.71,10.4-7.07,19.16-7.07s15.26,2.36,19.27,7.07c4.01,4.72,6.01,11.53,6.01,20.44s-1.99,15.82-5.96,20.49c-3.97,4.68-10.41,7.02-19.32,7.02ZM775.7,523.5c7.05,0,12.01-1.82,14.87-5.46,2.86-3.64,4.29-9.24,4.29-16.82s-1.45-13.07-4.34-16.71c-2.9-3.64-7.83-5.46-14.81-5.46s-11.92,1.82-14.81,5.46c-2.9,3.64-4.34,9.21-4.34,16.71s1.45,13.18,4.34,16.82c2.9,3.64,7.83,5.46,14.81,5.46Z"/>
      <path class="cls-1" d="M825.26,528.74c-2.97,0-5.35-.82-7.13-2.45s-2.67-4.57-2.67-8.8v-64.93h6.13v64.71c0,2.38.37,4.01,1.11,4.9.74.89,1.93,1.34,3.56,1.34s3.27-.22,4.9-.67v5.12c-.97.3-1.97.5-3.01.61-1.04.11-2,.17-2.9.17Z"/>
      <path class="cls-1" d="M865.8,528.74c-8.91,0-15.33-2.34-19.27-7.02-3.94-4.68-5.9-11.51-5.9-20.49s2-15.72,6.01-20.44c4.01-4.71,10.4-7.07,19.16-7.07s15.26,2.36,19.27,7.07c4.01,4.72,6.01,11.53,6.01,20.44s-1.99,15.82-5.96,20.49c-3.97,4.68-10.41,7.02-19.32,7.02ZM865.8,523.5c7.05,0,12.01-1.82,14.87-5.46,2.86-3.64,4.29-9.24,4.29-16.82s-1.45-13.07-4.34-16.71c-2.9-3.64-7.83-5.46-14.81-5.46s-11.92,1.82-14.81,5.46c-2.9,3.64-4.34,9.21-4.34,16.71s1.45,13.18,4.34,16.82c2.9,3.64,7.83,5.46,14.81,5.46Z"/>
      <path class="cls-1" d="M925.61,547.22c-3.94,0-7.69-.21-11.25-.61-3.56-.41-6.65-1.1-9.24-2.06v-5.23c3.04.96,6.33,1.69,9.86,2.17,3.53.48,7,.72,10.41.72,5.79,0,10.21-.45,13.25-1.34,3.04-.89,4.57-3.01,4.57-6.35,0-2.53-.78-4.29-2.34-5.29-1.56-1-4.46-1.5-8.69-1.5h-14.37c-4.9,0-8.5-.78-10.8-2.34-2.3-1.56-3.45-3.86-3.45-6.91,0-2.15.78-4.16,2.34-6.01,1.56-1.86,3.82-3.16,6.79-3.9-3.34-1.34-5.7-3.41-7.07-6.24-1.38-2.82-2.06-6.05-2.06-9.69,0-6.61,1.82-11.42,5.46-14.42,3.64-3.01,9.28-4.51,16.93-4.51,1.56,0,3.14.13,4.73.39,1.6.26,2.88.5,3.84.72h18.6l-.22,4.57h-10.25c1.93,1.63,3.32,3.6,4.18,5.9.85,2.3,1.28,4.75,1.28,7.35,0,6.02-1.69,10.6-5.07,13.76-3.38,3.16-8.71,4.73-15.98,4.73-1.19,0-2.34-.06-3.45-.17-1.11-.11-2.34-.28-3.68-.5-2.75.3-5.16,1.06-7.24,2.28-2.08,1.23-3.12,2.92-3.12,5.07,0,1.63.65,2.82,1.95,3.56,1.3.74,3.69,1.11,7.18,1.11h14.81c10.54,0,15.82,3.9,15.82,11.7,0,5.2-2.08,8.67-6.24,10.41-4.16,1.74-9.99,2.62-17.49,2.62ZM925.94,506.35c6.09,0,10.3-1.04,12.64-3.12,2.34-2.08,3.51-5.61,3.51-10.58s-1.24-8.58-3.73-10.8c-2.49-2.23-6.63-3.34-12.42-3.34s-9.95,1.08-12.47,3.23c-2.52,2.15-3.79,5.79-3.79,10.91,0,4.75,1.21,8.22,3.62,10.41,2.41,2.19,6.63,3.29,12.64,3.29Z"/>
      <path class="cls-1" d="M966.93,527.62v-47.67h-8.24l.67-5.12h13.7v52.79h-6.13ZM966.15,461.13v-6.68h7.02v6.68h-7.02Z"/>
      <path class="cls-1" d="M1006.02,528.74c-3.34,0-6.4-.52-9.19-1.56s-5.01-2.69-6.68-4.96-2.51-5.14-2.51-8.63c0-4.68,1.48-8.48,4.46-11.42,2.97-2.93,8.02-4.4,15.15-4.4h19.71v-5.01c0-3.34-.45-6.03-1.34-8.07-.89-2.04-2.51-3.51-4.84-4.4-2.34-.89-5.77-1.34-10.3-1.34-3.05,0-5.98.26-8.8.78-2.82.52-5.5,1.23-8.02,2.12v-5.23c2.3-.89,4.99-1.6,8.08-2.12,3.08-.52,6.37-.78,9.86-.78,7.28,0,12.64,1.47,16.09,4.4,3.45,2.93,5.18,7.78,5.18,14.53v34.97h-5.01l-.56-6.57c-2.45,2.6-5.35,4.53-8.69,5.79-3.34,1.26-7.54,1.89-12.59,1.89ZM1007.58,523.61c4.23,0,7.94-.69,11.14-2.06,3.19-1.37,5.94-3.43,8.24-6.18v-12.7h-19.49c-5.2,0-8.8.93-10.8,2.78-2,1.86-3.01,4.57-3.01,8.13s1.24,6.22,3.73,7.74c2.49,1.52,5.88,2.28,10.19,2.28Z"/>
      <path class="cls-1" d="M1096.34,528.74c-7.05,0-12.72-1.58-16.98-4.73-4.27-3.15-6.4-7.41-6.4-12.75s1.63-9.47,4.9-13.03c3.27-3.56,7.68-6.91,13.25-10.03-3.19-3.04-5.85-5.88-7.96-8.52-2.12-2.63-3.17-5.81-3.17-9.52,0-4.23,1.43-7.85,4.29-10.86,2.86-3.01,6.96-4.51,12.31-4.51s9.19,1.41,11.97,4.23c2.78,2.82,4.18,6.54,4.18,11.14,0,4.09-1.15,7.54-3.45,10.36-2.3,2.82-5.61,5.68-9.91,8.58l21.16,21.61c1.41-3.19,2.12-6.87,2.12-11.03v-2.23h5.12v2.12c0,5.72-1.19,10.62-3.56,14.7l10.25,10.36-3.67,3.34-9.47-9.47c-5.12,6.83-13.44,10.25-24.95,10.25ZM1096.34,524.06c9.73,0,16.78-3.04,21.16-9.13l-22.61-22.94c-5.2,2.75-9.17,5.51-11.92,8.3-2.75,2.78-4.12,6.4-4.12,10.86s1.65,7.44,4.96,9.63c3.3,2.19,7.48,3.29,12.53,3.29ZM1095.56,485.85c3.86-2.45,6.79-4.73,8.8-6.85,2-2.12,3.01-4.99,3.01-8.63,0-3.19-.82-5.77-2.45-7.74-1.63-1.97-4.42-2.95-8.35-2.95s-6.91,1.04-8.69,3.12c-1.78,2.08-2.67,4.6-2.67,7.57s.95,5.53,2.84,7.69c1.89,2.15,4.4,4.75,7.52,7.8Z"/>
      <path class="cls-1" d="M1173.97,527.62v-71.73h26.95c6.91,0,12.47,1.24,16.71,3.73,4.23,2.49,7.33,6.4,9.3,11.75,1.97,5.35,2.95,12.33,2.95,20.94,0,12.18-2.21,21.11-6.63,26.79-4.42,5.68-11.86,8.52-22.33,8.52h-26.95ZM1180.1,522.72h19.49c5.42,0,9.91-.82,13.48-2.45,3.56-1.63,6.24-4.64,8.02-9.02s2.67-10.69,2.67-18.94-.8-14.53-2.39-19.1c-1.6-4.57-4.16-7.76-7.68-9.58-3.53-1.82-8.22-2.73-14.09-2.73h-19.49v61.81Z"/>
      <path class="cls-1" d="M1269.42,528.74c-9.5,0-16.43-2.25-20.77-6.74-4.34-4.49-6.52-11.53-6.52-21.11,0-8.46,1.91-15.11,5.74-19.94,3.82-4.83,10.04-7.24,18.66-7.24,5.12,0,9.28.95,12.47,2.84,3.19,1.89,5.55,4.44,7.07,7.63,1.52,3.2,2.28,6.76,2.28,10.69v9.58h-40.1c.29,6.83,2.08,11.75,5.35,14.76,3.27,3.01,8.95,4.51,17.04,4.51,4.9,0,9.65-.93,14.26-2.78v5.01c-4.53,1.86-9.69,2.79-15.48,2.79ZM1248.26,499.67h34.53v-5.01c0-4.9-1.26-8.76-3.79-11.58-2.52-2.82-6.65-4.23-12.36-4.23-6.98,0-11.79,1.8-14.42,5.4-2.64,3.6-3.95,8.74-3.95,15.43Z"/>
      <path class="cls-1" d="M1318.87,528.74c-3.12,0-6.11-.21-8.97-.61-2.86-.41-5.29-.95-7.3-1.62v-5.46c2.45.82,4.97,1.43,7.57,1.84,2.6.41,5.23.61,7.91.61,5.2,0,8.91-.69,11.14-2.06,2.23-1.37,3.34-3.77,3.34-7.18,0-2.38-.54-4.18-1.62-5.4-1.08-1.23-2.77-2.28-5.07-3.18-2.3-.89-5.23-1.93-8.8-3.12-2.97-1.04-5.66-2.06-8.08-3.06-2.41-1-4.33-2.41-5.74-4.23-1.41-1.82-2.12-4.36-2.12-7.63,0-4.6,1.52-8.07,4.57-10.41,3.04-2.34,7.98-3.51,14.81-3.51,2.67,0,5.22.17,7.63.5,2.41.33,4.55.8,6.4,1.39v5.46c-4.31-1.34-8.69-2.01-13.14-2.01-5.27,0-8.97.65-11.08,1.95-2.12,1.3-3.17,3.47-3.17,6.52,0,2.08.46,3.7,1.39,4.85.93,1.15,2.41,2.13,4.46,2.95,2.04.82,4.7,1.75,7.96,2.79,3.93,1.26,7.22,2.52,9.86,3.79,2.63,1.26,4.6,2.84,5.9,4.73,1.3,1.89,1.95,4.44,1.95,7.63,0,5.2-1.76,8.91-5.29,11.14-3.53,2.23-8.37,3.34-14.53,3.34Z"/>
      <path class="cls-1" d="M1356.96,527.62v-47.67h-8.24l.67-5.12h13.7v52.79h-6.13ZM1356.18,461.13v-6.68h7.02v6.68h-7.02Z"/>
      <path class="cls-1" d="M1399.95,547.22c-3.94,0-7.69-.21-11.25-.61-3.56-.41-6.65-1.1-9.24-2.06v-5.23c3.04.96,6.33,1.69,9.86,2.17,3.53.48,7,.72,10.41.72,5.79,0,10.21-.45,13.25-1.34,3.04-.89,4.57-3.01,4.57-6.35,0-2.53-.78-4.29-2.34-5.29-1.56-1-4.46-1.5-8.69-1.5h-14.37c-4.9,0-8.5-.78-10.8-2.34-2.3-1.56-3.45-3.86-3.45-6.91,0-2.15.78-4.16,2.34-6.01,1.56-1.86,3.82-3.16,6.79-3.9-3.34-1.34-5.7-3.41-7.07-6.24-1.38-2.82-2.06-6.05-2.06-9.69,0-6.61,1.82-11.42,5.46-14.42,3.64-3.01,9.28-4.51,16.93-4.51,1.56,0,3.14.13,4.73.39,1.6.26,2.88.5,3.84.72h18.6l-.22,4.57h-10.25c1.93,1.63,3.32,3.6,4.18,5.9.85,2.3,1.28,4.75,1.28,7.35,0,6.02-1.69,10.6-5.07,13.76-3.38,3.16-8.71,4.73-15.98,4.73-1.19,0-2.34-.06-3.45-.17-1.11-.11-2.34-.28-3.68-.5-2.75.3-5.16,1.06-7.24,2.28-2.08,1.23-3.12,2.92-3.12,5.07,0,1.63.65,2.82,1.95,3.56,1.3.74,3.69,1.11,7.18,1.11h14.81c10.54,0,15.82,3.9,15.82,11.7,0,5.2-2.08,8.67-6.24,10.41-4.16,1.74-9.99,2.62-17.49,2.62ZM1400.28,506.35c6.09,0,10.3-1.04,12.64-3.12,2.34-2.08,3.51-5.61,3.51-10.58s-1.24-8.58-3.73-10.8c-2.49-2.23-6.63-3.34-12.42-3.34s-9.95,1.08-12.47,3.23c-2.52,2.15-3.79,5.79-3.79,10.91,0,4.75,1.21,8.22,3.62,10.41,2.41,2.19,6.63,3.29,12.64,3.29Z"/>
      <path class="cls-1" d="M1437.48,527.62v-52.79h5.35l.56,6.46c2.67-2.23,5.72-4.05,9.13-5.46,3.41-1.41,7.5-2.12,12.25-2.12,6.61,0,11.4,1.52,14.37,4.57,2.97,3.04,4.46,7.87,4.46,14.48v34.86h-6.12v-34.75c0-5.2-1.06-8.83-3.17-10.91-2.12-2.08-6.14-3.12-12.08-3.12-3.71,0-7.15.71-10.3,2.12-3.16,1.41-5.92,3.27-8.3,5.57v41.1h-6.13Z"/>
    </g>
    <g>
      <path class="cls-1" d="M588.69,208.78c13.92,0,26.4,1.53,37.45,4.59,11.04,3.06,20.37,7.52,27.98,13.37,7.61,5.85,13.46,13,17.54,21.44,4.08,8.45,6.13,18.06,6.13,28.82,0,14.85-3.72,27.38-11.14,37.59-7.43,10.21-18.1,18.01-32.02,23.39l45.94,65.71h-45.94l-40.93-58.47h-64.88v58.47h-40.37v-194.91h100.24ZM528.82,229.66v94.67h59.87c14.66,0,25.99-3.85,33.97-11.56,7.98-7.7,11.97-19.63,11.97-35.78s-3.99-28.08-11.97-35.78c-7.98-7.7-19.31-11.56-33.97-11.56h-59.87Z"/>
      <path class="cls-1" d="M794.73,389.76c9.09,0,17.59-1.58,25.48-4.73,7.89-3.15,15.64-7.61,23.25-13.37l11.14,16.71c-3.53,3.16-7.66,6.03-12.39,8.63-4.73,2.6-9.84,4.78-15.31,6.54-5.48,1.76-11.19,3.15-17.12,4.18-5.94,1.02-11.88,1.53-17.82,1.53-13.18,0-25.2-1.72-36.06-5.15s-20.1-8.44-27.71-15.04c-7.61-6.59-13.5-14.71-17.68-24.36-4.18-9.65-6.27-20.79-6.27-33.41s1.99-23.53,5.99-33.27c3.99-9.75,9.56-17.91,16.71-24.5,7.14-6.59,15.64-11.6,25.48-15.04,9.84-3.43,20.7-5.15,32.58-5.15,11.14,0,21.62,1.67,31.46,5.01,9.84,3.34,18.38,8.21,25.62,14.62,7.24,6.4,12.99,14.16,17.26,23.25,4.27,9.1,6.4,19.4,6.4,30.91v19.49h-118.89c2.23,15.41,7.56,26.45,16.01,33.13,8.45,6.68,19.07,10.02,31.88,10.02ZM784.99,271.43c-5.39,0-10.4,1.02-15.04,3.06-4.64,2.04-8.68,5.29-12.11,9.75-3.44,4.46-6.22,10.21-8.35,17.26-2.14,7.06-3.3,15.59-3.48,25.62h77.96c0-9.65-1.11-18-3.34-25.06-2.23-7.05-5.15-12.85-8.77-17.4-3.62-4.55-7.8-7.89-12.53-10.02-4.73-2.13-9.52-3.2-14.34-3.2Z"/>
      <path class="cls-1" d="M904.72,278.39h-26.45v-19.49h26.45v-44.55h38.98v44.55h43.16v19.49h-43.16v72.4c0,7.06.79,13.04,2.37,17.96,1.58,4.92,3.71,8.91,6.4,11.97,2.69,3.06,5.8,5.34,9.33,6.82,3.52,1.49,7.24,2.23,11.14,2.23,5.57,0,10.95-.88,16.15-2.65,5.2-1.76,9.56-3.66,13.09-5.71l8.35,18.1c-5.57,2.79-11.93,5.1-19.07,6.96-7.15,1.85-14.25,2.78-21.3,2.78-20.98,0-37.13-5.2-48.45-15.59-11.33-10.39-16.99-24.69-16.99-42.88v-72.4Z"/>
      <path class="cls-1" d="M1130.26,311.8c0-13.37-3.48-23.2-10.44-29.51-6.96-6.31-16.01-9.47-27.15-9.47-8.35,0-16.52,1.25-24.5,3.76-7.98,2.51-15.13,5.89-21.44,10.16l-9.75-16.71c4.08-2.79,8.58-5.2,13.5-7.24,4.92-2.04,9.98-3.76,15.17-5.15,5.19-1.39,10.35-2.46,15.45-3.2,5.1-.74,9.88-1.11,14.34-1.11,11.88,0,22.37,1.39,31.46,4.18,9.09,2.78,16.8,6.78,23.11,11.97,6.31,5.2,11.09,11.37,14.34,18.52,3.25,7.15,4.87,15.08,4.87,23.81v91.89h-77.96c-25.25,0-43.86-3.8-55.83-11.42-11.97-7.61-17.96-19.12-17.96-34.53s5.99-26.91,17.96-34.53c11.97-7.61,30.58-11.42,55.83-11.42h38.98ZM1059.26,357.74c0,17.64,10.67,26.45,32.02,26.45h38.98v-52.9h-38.98c-21.35,0-32.02,8.82-32.02,26.45Z"/>
      <path class="cls-1" d="M1275.05,339.64h-29.24v64.04h-38.98v-194.91h38.98v111.38h29.24l43.16-61.26h41.77l-48.73,69.61,51.51,75.18h-44.55l-43.16-64.04Z"/>
      <path class="cls-1" d="M1463,389.76c9.09,0,17.59-1.58,25.48-4.73,7.89-3.15,15.64-7.61,23.25-13.37l11.14,16.71c-3.53,3.16-7.66,6.03-12.39,8.63-4.73,2.6-9.84,4.78-15.31,6.54-5.48,1.76-11.19,3.15-17.12,4.18-5.94,1.02-11.88,1.53-17.82,1.53-13.18,0-25.2-1.72-36.06-5.15s-20.1-8.44-27.71-15.04c-7.61-6.59-13.5-14.71-17.68-24.36-4.18-9.65-6.26-20.79-6.26-33.41s1.99-23.53,5.99-33.27c3.99-9.75,9.56-17.91,16.71-24.5,7.14-6.59,15.64-11.6,25.48-15.04,9.84-3.43,20.7-5.15,32.58-5.15,11.14,0,21.62,1.67,31.46,5.01,9.84,3.34,18.38,8.21,25.62,14.62,7.24,6.4,12.99,14.16,17.26,23.25,4.27,9.1,6.4,19.4,6.4,30.91v19.49h-118.89c2.23,15.41,7.56,26.45,16.01,33.13,8.45,6.68,19.07,10.02,31.88,10.02ZM1453.25,271.43c-5.39,0-10.4,1.02-15.04,3.06-4.64,2.04-8.68,5.29-12.11,9.75-3.44,4.46-6.22,10.21-8.35,17.26-2.14,7.06-3.3,15.59-3.48,25.62h77.96c0-9.65-1.11-18-3.34-25.06-2.23-7.05-5.15-12.85-8.77-17.4-3.62-4.55-7.8-7.89-12.53-10.02-4.73-2.13-9.51-3.2-14.34-3.2Z"/>
    </g>
  </g>
  <g>
    <path class="cls-2" d="M264.79,484.13l1.46-1.73v-120.12s-1.43-1.73-1.43-1.73l-1.97,1.08-64.07,163.43.05,1.4,34.35,72.8,1.61,1.01h72.79s1.65-1.12,1.65-1.12l28.57-72.79v-1.3s-64.05-163.42-64.05-163.42l-1.97-1.09-1.44,1.74v120.1s1.47,1.73,1.47,1.73c9.56,1.67,16.83,9.97,16.84,19.99-.02,11.24-9.11,20.33-20.35,20.35-11.23-.03-20.32-9.11-20.34-20.34,0-10.04,7.28-18.32,16.84-19.99Z"/>
    <g>
      <path class="cls-1" d="M333,401.72c-2.21,0-4-1.79-4-4v-142c0-2.21,1.79-4,4-4s4,1.79,4,4v142c0,2.21-1.79,4-4,4Z"/>
      <circle class="cls-1" cx="333" cy="253.72" r="16"/>
    </g>
    <path class="cls-1" d="M333,312.72h-65c-2.21,0-4-1.79-4-4s1.79-4,4-4h65c2.21,0,4,1.79,4,4s-1.79,4-4,4Z"/>
    <path class="cls-1" d="M228,312.72c-2.21,0-4-1.79-4-4v-95c0-2.21,1.79-4,4-4s4,1.79,4,4v95c0,2.21-1.79,4-4,4Z"/>
    <path class="cls-1" d="M298,312.72h-118c-2.21,0-4-1.79-4-4s1.79-4,4-4h118c2.21,0,4,1.79,4,4s-1.79,4-4,4Z"/>
    <path class="cls-1" d="M228,217.72h-25c-2.21,0-4-1.79-4-4s1.79-4,4-4h25c2.21,0,4,1.79,4,4s-1.79,4-4,4Z"/>
    <path class="cls-1" d="M203,217.72c-2.21,0-4-1.79-4-4v-42c0-2.21,1.79-4,4-4s4,1.79,4,4v42c0,2.21-1.79,4-4,4Z"/>
    <path class="cls-1" d="M180,354.72c-2.21,0-4-1.79-4-4v-42c0-2.21,1.79-4,4-4s4,1.79,4,4v42c0,2.21-1.79,4-4,4Z"/>
    <circle class="cls-1" cx="203" cy="171.72" r="16"/>
    <circle class="cls-1" cx="180" cy="360.72" r="16"/>
    <path class="cls-1" d="M268,342.72c-2.21,0-4-1.79-4-4v-136c0-2.21,1.79-4,4-4s4,1.79,4,4v136c0,2.21-1.79,4-4,4Z"/>
    <path class="cls-1" d="M310,204.72h-42c-2.21,0-4-1.79-4-4s1.79-4,4-4h42c2.21,0,4,1.79,4,4s-1.79,4-4,4Z"/>
    <circle class="cls-1" cx="310" cy="200.72" r="16"/>
  </g>
</svg>