<?xml version="1.0" encoding="UTF-8"?>
<svg id="Camada_1" data-name="Camada 1" xmlns="http://www.w3.org/2000/svg" viewBox="0 0 756 756">
  <defs>
    <style>
      .cls-1 {
        fill: #e8cc85;
      }
    </style>
  </defs>
  <path class="cls-1" d="M377.35,519.33l1.94-2.31v-159.95s-1.9-2.3-1.9-2.3l-2.62,1.44-85.31,217.63.06,1.86,45.74,96.95,2.14,1.34h96.93s2.2-1.49,2.2-1.49l38.04-96.93v-1.73s-85.29-217.62-85.29-217.62l-2.63-1.45-1.92,2.31v159.93s1.95,2.31,1.95,2.31c12.73,2.22,22.42,13.27,22.43,26.62-.03,14.97-12.13,27.07-27.1,27.1-14.96-.04-27.05-12.14-27.09-27.09,0-13.36,9.69-24.4,22.43-26.62Z"/>
  <g>
    <path class="cls-1" d="M468.18,409.58c-2.94,0-5.33-2.38-5.33-5.33v-189.09c0-2.94,2.38-5.33,5.33-5.33s5.33,2.38,5.33,5.33v189.09c0,2.94-2.38,5.33-5.33,5.33Z"/>
    <circle class="cls-1" cx="468.18" cy="212.5" r="21.31"/>
  </g>
  <path class="cls-1" d="M468.18,291.07h-86.56c-2.94,0-5.33-2.38-5.33-5.33s2.38-5.33,5.33-5.33h86.56c2.94,0,5.33,2.38,5.33,5.33s-2.38,5.33-5.33,5.33Z"/>
  <path class="cls-1" d="M328.36,291.07c-2.94,0-5.33-2.38-5.33-5.33v-126.51c0-2.94,2.38-5.33,5.33-5.33s5.33,2.38,5.33,5.33v126.51c0,2.94-2.38,5.33-5.33,5.33Z"/>
  <path class="cls-1" d="M421.58,291.07h-157.13c-2.94,0-5.33-2.38-5.33-5.33s2.38-5.33,5.33-5.33h157.13c2.94,0,5.33,2.38,5.33,5.33s-2.38,5.33-5.33,5.33Z"/>
  <path class="cls-1" d="M328.36,164.56h-33.29c-2.94,0-5.33-2.38-5.33-5.33s2.38-5.33,5.33-5.33h33.29c2.94,0,5.33,2.38,5.33,5.33s-2.38,5.33-5.33,5.33Z"/>
  <path class="cls-1" d="M295.07,164.56c-2.94,0-5.33-2.38-5.33-5.33v-55.93c0-2.94,2.38-5.33,5.33-5.33s5.33,2.38,5.33,5.33v55.93c0,2.94-2.38,5.33-5.33,5.33Z"/>
  <path class="cls-1" d="M264.44,347c-2.94,0-5.33-2.38-5.33-5.33v-55.93c0-2.94,2.38-5.33,5.33-5.33s5.33,2.38,5.33,5.33v55.93c0,2.94-2.38,5.33-5.33,5.33Z"/>
  <circle class="cls-1" cx="295.07" cy="103.31" r="21.31"/>
  <circle class="cls-1" cx="264.44" cy="354.99" r="21.31"/>
  <path class="cls-1" d="M381.63,331.02c-2.94,0-5.33-2.38-5.33-5.33v-181.1c0-2.94,2.38-5.33,5.33-5.33s5.33,2.38,5.33,5.33v181.1c0,2.94-2.38,5.33-5.33,5.33Z"/>
  <path class="cls-1" d="M437.56,147.25h-55.93c-2.94,0-5.33-2.38-5.33-5.33s2.38-5.33,5.33-5.33h55.93c2.94,0,5.33,2.38,5.33,5.33s-2.38,5.33-5.33,5.33Z"/>
  <circle class="cls-1" cx="437.56" cy="141.92" r="21.31"/>
</svg>